<svg version="1" xmlns="http://www.w3.org/2000/svg" width="240" height="240" viewBox="0 0 180.000000 180.000000"><path d="M85.1 5.5C82.7 6.6 77.7 7 66.4 7c-8.4 0-15.5.4-15.8.9-.3.4-3.3 1.1-6.6 1.5-8.9 1-12.2 4.2-12.8 12.3-.4 5.8-.3 6.1 3.4 10 3.4 3.5 4.9 4.2 11.9 5.7 4.4.9 8.7 2 9.5 2.5 1.7.9 1.7 1.6.5 24.3-.7 14.2-.6 15.8.9 16.4 2 .8 2.1 3.6.1 7.4-1 2-1.6 6.6-1.7 15.3-.2 10.3 0 13 1.6 16.5 1.8 4 1.8 4.3.1 6.2-1.4 1.6-1.6 3-1.1 8.2.3 3.5.3 6.8-.1 7.4-1.5 2.1-5.2 3.4-13.5 4.9-12.6 2.3-12.8 2.4-13.9 4.9-.9 1.9-.5 4.4 2 12.5 3.4 11 4.9 12.6 10.4 11.6 1.9-.4 4.7 0 6.9.9 5.2 2.2 12 2.1 14.9-.3 2.1-1.6 3.2-1.7 7.9-.9 5.6.9 40.2.1 46.2-1.1 2.2-.5 3.7-1.6 4.6-3.4 1.1-2.3 1-3.2-.9-6.9-3.1-6-10.8-14.7-14.9-16.8-1.9-.9-5.7-2.1-8.5-2.4-9.6-1.4-9.2-1-9.8-8.4-.6-5.7-.4-6.9 1.3-8.7 2.5-2.7 2.5-5.9.1-9.3-1.8-2.6-1.8-2.9.1-12.2 2.1-10.4 2-18.8-.5-25.8-1.3-3.8-1.3-4.7 0-8.2 1.4-3.5 1.4-4.4 0-8.7-1-3.1-1.2-5.3-.6-6.4 1.7-3.3 1-8-2.1-12.4-3.6-5.2-3.6-5.5-.9-5.5 1.2 0 6.3-1.6 11.4-3.5 12.2-4.5 16.3-5.2 20.4-3 2.7 1.4 3.2 2 2.6 3.8-.5 1.2-.7 3.5-.6 5.2 1.6 31.6 1.4 29.8 4.8 34.1 6.2 7.8 11.7 8.1 20 .9 8.4-7.2 9.3-17.5 3.2-37.5-2.3-7.6-3.2-12.6-3.3-18.1-.1-5.2-.6-8.2-1.6-9.4-2.4-2.9-7.5-4.5-14.4-4.5-4.1 0-7.9-.6-10.1-1.7-3.4-1.6-3.8-1.6-7 .2-3.3 1.7-3.8 1.7-11 .2-9.1-2-10-2-14.4-.2z"/></svg>