<?xml version="1.0" standalone="no"?>
<!DOCTYPE svg PUBLIC "-//W3C//DTD SVG 20010904//EN"
 "http://www.w3.org/TR/2001/REC-SVG-20010904/DTD/svg10.dtd">
<svg version="1.0" xmlns="http://www.w3.org/2000/svg"
 width="1532.000000pt" height="1532.000000pt" viewBox="0 0 1532.000000 1532.000000"
 preserveAspectRatio="xMidYMid meet">
<metadata>
Created by potrace 1.11, written by Peter Selinger 2001-2013
</metadata>
<g transform="translate(0.000000,1532.000000) scale(0.100000,-0.100000)"
fill="#000000" stroke="none">
<path d="M3071 8995 c-24 -11 -75 -15 -192 -15 -87 0 -160 -4 -163 -9 -3 -4
-33 -11 -66 -15 -84 -10 -121 -42 -128 -114 -9 -102 34 -151 155 -176 43 -9
89 -21 102 -27 26 -11 26 10 -1 -263 -12 -117 -12 -119 10 -136 27 -22 27 -31
2 -98 -11 -29 -20 -76 -21 -105 0 -28 -1 -72 -1 -97 -1 -26 8 -67 22 -98 l23
-53 -22 -23 c-23 -24 -28 -65 -10 -83 6 -6 9 -23 7 -39 -4 -38 -45 -60 -148
-80 -97 -18 -136 -35 -145 -64 -4 -12 7 -63 24 -120 34 -109 49 -125 104 -115
19 4 47 0 69 -9 52 -22 129 -21 159 3 21 16 32 17 79 9 55 -9 390 -1 465 11
52 8 74 45 51 88 -25 49 -153 189 -183 201 -15 6 -57 15 -92 21 -35 6 -65 12
-66 13 -1 2 -5 33 -9 69 -5 58 -4 68 14 84 25 23 26 59 1 93 -18 26 -18 29 1
122 22 106 20 198 -5 268 -13 39 -13 47 0 82 14 35 14 44 0 87 -10 31 -12 53
-6 64 17 33 10 80 -21 124 -36 52 -36 55 -9 55 12 0 63 16 114 35 121 45 163
52 203 31 36 -18 37 -24 20 -61 -9 -21 -9 -34 2 -63 9 -23 14 -77 15 -143 0
-100 2 -108 29 -148 43 -61 79 -85 121 -77 49 10 116 64 143 116 21 40 23 55
18 125 -3 48 -18 122 -37 185 -24 78 -32 126 -33 186 -1 56 -6 87 -16 99 -25
30 -75 45 -149 45 -46 0 -83 6 -106 17 -34 16 -38 16 -70 -2 -33 -17 -38 -17
-110 -2 -91 20 -100 20 -144 2z"/>
<path d="M10215 8590 c-4 -21 -4 -43 -1 -48 11 -18 -14 -34 -75 -48 -35 -8
-68 -19 -73 -24 -6 -6 -16 -10 -24 -10 -41 0 -190 -133 -232 -208 -13 -23 -27
-42 -31 -42 -4 0 -8 30 -11 68 -3 64 -6 70 -57 132 -33 40 -67 71 -90 80 -20
8 -53 29 -74 45 -31 25 -49 31 -109 36 -40 4 -104 14 -143 23 -52 12 -76 14
-93 6 -13 -5 -57 -10 -98 -10 -89 0 -203 -16 -249 -36 -18 -7 -42 -26 -54 -41
-11 -16 -21 -22 -21 -14 0 8 -11 29 -26 48 l-25 33 -95 0 c-86 0 -98 -2 -128
-25 -21 -16 -46 -25 -70 -25 -25 0 -44 -7 -59 -23 -20 -19 -26 -21 -48 -10
-68 35 -154 -2 -179 -76 -12 -36 -11 -46 10 -100 24 -65 21 -96 -13 -123 -20
-15 -22 -15 -32 5 -7 16 -21 23 -47 25 -33 3 -39 -1 -62 -35 -31 -45 -33 -74
-7 -97 25 -22 83 -31 110 -16 13 6 24 10 26 8 1 -2 -14 -33 -35 -70 -21 -37
-40 -79 -42 -94 -2 -15 -13 -33 -25 -41 -21 -14 -21 -14 -16 44 4 49 2 62 -16
83 -12 14 -39 52 -59 85 l-38 60 33 28 c17 16 44 54 58 85 37 79 31 147 -18
201 -19 22 -38 48 -41 58 -6 19 -44 43 -67 43 -6 0 -40 -12 -76 -26 -63 -25
-66 -26 -107 -10 -51 20 -132 20 -166 1 -21 -11 -28 -11 -40 0 -8 7 -59 22
-113 34 -85 18 -103 19 -125 7 -15 -7 -81 -17 -147 -21 -66 -4 -127 -11 -136
-16 -10 -5 -27 -24 -39 -43 l-21 -35 -39 43 c-34 36 -48 44 -88 49 -33 4 -54
1 -70 -10 -21 -13 -37 -13 -128 -2 -81 10 -107 10 -116 1 -7 -7 -37 -12 -68
-12 -75 0 -88 -12 -101 -89 -11 -68 -5 -84 45 -139 17 -20 29 -23 74 -21 69 3
74 -6 56 -101 -16 -87 -19 -343 -3 -410 8 -35 7 -57 -7 -108 -14 -53 -15 -69
-5 -97 9 -25 9 -44 0 -78 -10 -43 -11 -44 -39 -34 -23 9 -35 6 -74 -17 -53
-31 -66 -51 -66 -103 0 -79 26 -91 248 -118 220 -26 352 12 352 101 0 48 -74
138 -117 142 -38 4 -46 33 -31 107 6 27 8 79 5 115 l-5 66 56 1 c47 1 59 -2
79 -23 28 -31 54 -30 92 2 26 21 38 25 66 20 l35 -7 0 -119 c0 -65 3 -126 6
-134 5 -12 2 -15 -10 -10 -35 13 -146 -85 -146 -130 0 -12 18 -48 41 -79 40
-57 40 -57 93 -57 29 0 73 -7 99 -16 43 -14 52 -14 99 -1 29 9 87 18 130 21
42 2 86 10 98 16 18 9 25 8 40 -5 16 -14 41 -16 172 -14 84 1 169 -1 189 -5
60 -13 113 21 137 87 19 48 19 59 7 115 l-13 62 38 0 c31 0 44 7 69 35 28 32
31 42 31 103 0 64 2 70 29 90 16 12 31 32 33 44 2 13 11 24 23 26 27 5 45 30
45 65 0 16 11 42 25 59 14 16 25 36 25 44 0 20 46 18 54 -3 4 -9 2 -58 -5
-108 -9 -65 -9 -107 -1 -150 9 -54 8 -62 -10 -81 -21 -23 -53 -129 -43 -144 3
-6 -4 -10 -17 -10 -15 0 -40 -16 -66 -43 -47 -48 -54 -86 -27 -151 20 -48 59
-57 193 -40 29 3 82 1 118 -5 65 -12 66 -12 113 19 26 16 52 30 58 30 22 0 43
38 43 76 0 31 -7 46 -28 67 -15 15 -34 27 -40 27 -7 0 -30 12 -52 26 -39 26
-50 47 -30 59 6 3 10 28 10 55 0 50 45 195 80 261 11 20 20 43 20 51 0 16 -95
254 -108 272 -5 6 -9 45 -8 86 l1 74 45 8 c77 13 89 17 125 49 35 31 35 31 35
8 -1 -13 -9 -71 -19 -129 l-19 -105 21 -39 c22 -41 36 -47 119 -59 28 -4 45 0
71 17 18 13 50 26 71 29 51 8 76 32 76 73 0 83 47 124 149 132 67 4 68 4 80
-26 8 -19 29 -39 56 -53 54 -29 69 -57 46 -86 -17 -21 -126 -58 -204 -69 -38
-5 -57 -15 -97 -53 -47 -44 -50 -50 -50 -96 0 -95 78 -165 182 -164 97 1 144
-10 174 -42 15 -16 38 -29 51 -29 19 0 23 -5 23 -30 0 -22 -5 -30 -18 -30 -25
0 -62 -28 -72 -56 -7 -18 -17 -24 -40 -24 -17 0 -45 -6 -63 -12 -50 -20 -216
-12 -247 12 -23 17 -23 20 -8 37 8 10 21 34 28 53 11 33 10 41 -19 98 -27 54
-38 66 -78 83 -62 26 -153 35 -193 19 -22 -9 -39 -29 -61 -71 -26 -52 -29 -69
-29 -148 l0 -90 91 -103 c93 -106 106 -116 149 -117 14 -1 49 -19 79 -41 37
-28 63 -40 86 -40 18 0 38 -7 45 -15 10 -12 37 -15 124 -15 94 0 116 3 141 20
17 11 42 20 57 20 37 0 164 88 218 151 40 48 47 64 71 168 15 64 28 108 28 99
1 -10 6 -18 11 -18 6 0 10 -6 10 -13 0 -7 9 -23 20 -35 11 -12 20 -24 20 -29
0 -10 76 -80 124 -112 48 -32 145 -72 195 -81 35 -5 36 -6 37 -53 3 -72 6 -77
61 -74 l48 2 3 61 3 62 62 12 c187 36 363 207 413 399 l11 44 6 -46 c4 -29 1
-63 -8 -94 -18 -58 -19 -87 -3 -112 9 -14 8 -29 -1 -64 -13 -44 -14 -45 -46
-40 -62 10 -135 -52 -135 -114 0 -85 19 -95 240 -122 301 -37 432 39 319 186
-39 50 -76 72 -97 59 -16 -10 -20 54 -6 118 9 42 10 76 3 110 -5 27 -9 51 -9
55 0 3 27 6 60 5 50 0 63 -4 76 -22 21 -30 70 -29 103 2 20 18 34 23 59 19
l32 -5 0 -97 c0 -53 3 -113 6 -133 6 -36 5 -38 -19 -38 -27 0 -104 -58 -124
-94 -18 -31 -16 -54 9 -89 50 -75 68 -87 124 -87 28 0 70 -7 93 -15 36 -12 46
-12 82 0 22 8 83 18 135 21 124 9 144 23 144 99 0 48 -3 56 -35 84 -20 17 -45
31 -56 31 -12 0 -39 10 -60 22 -37 21 -39 24 -39 71 0 33 -5 54 -15 61 -14 10
-14 18 1 81 30 130 39 272 28 486 -6 133 -9 129 93 129 47 0 54 3 77 33 25 34
46 95 46 137 0 17 -14 39 -42 66 -40 38 -51 43 -139 59 -75 13 -101 15 -118 6
-11 -7 -78 -16 -149 -21 l-127 -9 -36 -40 -37 -41 -33 41 c-30 36 -40 41 -90
46 -42 4 -59 2 -71 -10 -13 -14 -27 -14 -114 -3 -54 7 -106 10 -114 6 -8 -5
-45 -11 -82 -15 -37 -4 -72 -13 -78 -20 -6 -7 -15 -40 -21 -73 l-11 -60 -45
34 c-61 47 -115 72 -194 90 l-65 15 1 52 c1 29 -3 55 -9 59 -6 4 -30 8 -53 8
-40 0 -41 -1 -48 -40z m-4 -220 c0 -11 0 -63 0 -115 0 -210 -1 -225 -14 -225
-8 0 -19 -10 -26 -23 -12 -22 -15 -23 -175 -22 l-162 0 7 40 c25 131 131 275
242 328 85 41 127 47 128 17z m188 6 c93 -34 195 -122 249 -217 19 -33 51
-141 52 -172 0 -4 -71 -7 -157 -6 l-157 2 -30 31 -30 31 0 173 c-1 193 -5 185
73 158z m-3367 -121 l33 6 -5 -106 c-5 -114 -6 -116 -71 -150 -23 -12 -29 -12
-39 0 -6 8 -36 19 -67 26 -48 11 -59 11 -88 -5 -34 -19 -81 -18 -78 1 17 87
21 144 13 178 -8 34 -6 43 12 62 18 19 32 23 83 23 50 0 66 4 80 20 19 21 19
21 56 -20 34 -37 41 -40 71 -35z m531 55 c15 0 37 5 47 10 17 9 23 4 46 -29
l26 -40 -11 -143 c-6 -79 -19 -177 -27 -219 -16 -74 -16 -77 7 -140 27 -78 44
-99 79 -99 28 0 28 0 14 -37 -7 -21 -13 -51 -14 -66 0 -34 -66 -101 -90 -91
-46 19 -59 16 -108 -30 l-49 -46 -26 20 c-14 11 -33 20 -44 20 -10 0 -36 10
-58 23 -37 21 -40 26 -43 72 -2 28 -10 57 -18 66 -12 13 -12 25 2 90 18 81 36
247 34 319 0 25 -1 97 -3 160 l-2 115 66 3 c58 3 69 6 94 32 20 20 32 27 39
20 5 -5 23 -10 39 -10z m3749 -26 c27 -31 37 -35 67 -32 l36 3 -3 -90 c-4
-122 -5 -126 -56 -157 -38 -23 -46 -25 -57 -12 -6 8 -36 21 -66 30 -53 16 -56
15 -84 -5 -30 -23 -64 -27 -74 -11 -4 6 -1 42 5 79 8 49 8 80 1 106 -8 31 -7
42 7 61 15 20 26 23 78 24 46 0 68 5 85 20 13 10 25 19 27 20 1 0 17 -16 34
-36z m-494 -17 c8 -9 7 -35 -2 -91 -13 -73 -26 -110 -26 -72 0 9 -16 49 -35
89 -19 39 -35 73 -35 74 0 1 15 4 33 6 17 2 37 5 43 5 6 1 16 -4 22 -11z
m-637 -429 c21 -24 29 -44 29 -73 2 -96 -1 -300 -5 -303 -7 -7 -120 32 -150
52 -70 45 -185 180 -185 217 0 5 -6 22 -14 37 -8 15 -17 44 -21 64 -7 35 -5
37 22 40 15 2 88 2 162 1 l133 -3 29 -32z m513 -10 c-11 -67 -71 -181 -128
-240 -30 -31 -76 -65 -111 -82 -33 -16 -68 -33 -77 -38 -10 -4 -26 -8 -37 -8
-18 0 -19 9 -17 173 l1 173 30 32 30 31 158 1 157 0 -6 -42z"/>
<path d="M4003 8570 c-47 -24 -86 -57 -159 -133 -126 -133 -130 -139 -116
-183 7 -24 7 -43 -1 -63 -9 -24 -6 -36 14 -77 34 -68 68 -84 187 -84 91 0 95
1 122 30 15 16 42 66 60 110 28 70 34 78 50 70 25 -13 66 -13 89 2 15 9 26 8
51 -4 32 -15 65 -14 76 3 8 14 47 10 72 -7 62 -43 -20 -153 -141 -188 -29 -8
-135 -24 -236 -35 -117 -13 -198 -28 -225 -40 -124 -54 -207 -229 -177 -373
16 -77 112 -282 138 -297 53 -28 175 -53 285 -58 139 -7 224 10 331 64 l68 34
28 -24 c16 -13 51 -29 77 -36 27 -7 70 -19 96 -27 66 -20 84 -18 144 16 164
94 236 230 193 361 -33 97 -147 150 -213 98 -15 -12 -29 -20 -31 -18 -11 12
-25 226 -25 395 0 227 -6 248 -87 330 -88 88 -156 109 -428 139 -77 8 -149 17
-160 20 -12 4 -45 -7 -82 -25z m412 -863 c-27 -58 -55 -76 -139 -92 -92 -18
-137 -19 -190 -4 l-38 11 33 28 c19 16 48 32 64 35 17 4 51 14 77 22 42 13 49
13 70 -1 35 -25 61 -19 98 19 39 40 49 33 25 -18z m352 -112 c-4 -8 -11 -15
-17 -15 -7 0 -7 6 0 21 13 23 26 19 17 -6z"/>
<path d="M1579 8575 c-15 -8 -29 -21 -33 -30 -3 -8 -17 -15 -30 -15 -14 0 -37
-5 -52 -12 -24 -11 -26 -16 -21 -55 5 -50 -1 -57 -65 -74 -45 -12 -47 -14 -62
-70 -29 -100 -31 -204 -7 -288 l21 -75 -23 -24 c-22 -23 -22 -24 -3 -38 11 -8
36 -14 55 -14 49 0 63 -11 70 -56 5 -32 11 -39 37 -46 41 -10 182 -157 191
-198 3 -17 8 -30 11 -30 3 0 24 11 48 25 30 17 69 28 137 36 85 11 102 10 152
-6 31 -9 59 -14 62 -11 4 3 2 22 -4 41 -14 45 4 64 43 46 14 -6 36 -11 50 -11
l26 0 -31 42 c-35 48 -36 47 41 101 25 18 68 49 96 70 l51 38 -16 51 c-8 28
-13 65 -10 82 2 17 -6 60 -18 97 -19 55 -20 67 -9 75 12 7 10 23 -9 94 -18 65
-22 95 -15 129 4 25 6 46 4 48 -1 2 -20 -4 -41 -12 -40 -17 -84 -13 -122 12
-13 8 -31 12 -43 8 -15 -5 -27 1 -47 24 -32 36 -44 37 -98 11 -51 -25 -55 -25
-94 4 -25 19 -41 23 -67 19 -21 -3 -46 1 -68 11 -41 19 -72 20 -107 1z"/>
<path d="M5663 8536 c-47 -39 -100 -59 -142 -51 -20 3 -84 20 -144 37 -92 26
-120 29 -200 26 -106 -4 -159 -24 -188 -72 -24 -40 -25 -121 -2 -194 24 -76
45 -87 154 -85 l87 2 9 -97 c10 -126 10 -726 0 -864 l-9 -108 -99 0 c-87 0
-101 -2 -120 -21 -14 -14 -19 -29 -16 -47 3 -14 -1 -50 -9 -79 -19 -74 -18
-126 4 -145 43 -38 144 -51 287 -37 61 5 136 13 169 16 41 4 75 0 116 -12 l57
-17 64 27 c119 52 164 133 120 218 -35 68 -33 67 -152 67 l-109 0 0 79 c0 107
6 111 110 76 163 -54 300 -23 420 95 64 63 106 120 148 206 29 58 30 62 35
263 7 220 -2 320 -34 407 -26 70 -46 92 -157 184 -133 110 -197 142 -292 148
-70 4 -78 2 -107 -22z m121 -398 c-4 -37 -14 -60 -30 -76 -32 -31 -30 -67 5
-103 22 -21 39 -29 65 -29 33 0 36 -2 36 -29 0 -20 9 -36 25 -49 14 -11 25
-22 25 -24 0 -2 -18 -2 -39 0 -21 2 -48 -1 -59 -7 -24 -13 -82 -130 -82 -165
0 -14 -3 -26 -7 -26 -12 1 -53 37 -53 46 0 4 -12 20 -26 35 -24 25 -26 34 -27
122 -1 89 1 96 26 127 34 40 34 70 1 110 -15 17 -23 35 -18 39 33 30 123 81
142 81 22 0 22 -3 16 -52z"/>
<path d="M12409 8355 c-15 -8 -29 -21 -33 -30 -3 -8 -16 -15 -30 -15 -14 0
-37 -5 -51 -10 -25 -10 -27 -13 -21 -54 8 -51 0 -60 -65 -76 -47 -12 -47 -12
-64 -77 -24 -88 -24 -220 -1 -296 l18 -59 -24 -25 c-23 -24 -23 -25 -4 -39 11
-8 35 -14 54 -14 52 0 72 -15 72 -55 0 -29 4 -36 28 -41 60 -15 202 -166 202
-216 0 -17 3 -17 48 6 26 13 81 29 123 36 71 12 109 10 203 -6 l38 -6 -7 40
c-8 50 1 56 59 40 25 -7 48 -9 52 -5 3 3 -8 24 -25 46 l-32 41 47 32 c26 18
66 49 89 68 22 19 51 42 63 50 22 15 22 16 7 68 -9 30 -14 66 -10 81 3 16 -4
52 -18 92 -21 57 -22 67 -9 75 12 8 11 20 -8 89 -16 59 -21 93 -16 132 3 29 4
53 1 53 -3 0 -22 -7 -41 -15 -38 -16 -75 -12 -109 11 -11 8 -35 14 -53 14 -24
0 -40 7 -54 25 -24 30 -46 31 -99 4 l-41 -20 -38 25 c-29 19 -46 24 -73 19
-21 -3 -45 1 -65 11 -38 20 -78 20 -113 1z"/>
<path d="M7168 6926 c-10 -7 -18 -18 -18 -24 0 -6 -6 -9 -14 -6 -8 3 -16 -3
-19 -16 -7 -28 -24 -18 -32 20 -6 27 -25 43 -25 21 0 -6 -20 -13 -44 -16 -52
-8 -61 -23 -41 -71 14 -33 15 -34 74 -34 56 0 61 -2 61 -21 0 -19 4 -21 31
-15 16 3 37 12 45 21 8 8 28 22 44 32 25 14 30 24 30 54 0 58 -50 88 -92 55z"/>
<path d="M5946 6913 c-67 -2 -126 -9 -133 -15 -27 -22 -13 -36 42 -43 88 -11
89 -14 88 -283 -2 -257 0 -253 -80 -244 -36 4 -49 1 -58 -12 -16 -21 -8 -54
14 -65 27 -15 330 -3 364 14 17 8 46 15 67 15 34 0 60 14 60 32 0 4 -7 8 -15
8 -19 0 -19 3 5 42 12 19 20 51 20 75 0 53 -36 152 -64 176 -44 38 -110 62
-170 62 l-59 0 -2 53 c-1 29 2 55 7 58 5 3 4 12 -3 20 -9 11 -8 15 2 17 8 3
30 9 50 16 52 16 143 15 136 -2 -3 -8 -1 -20 3 -28 6 -8 4 -16 -3 -21 -16 -10
20 -37 49 -38 32 0 47 25 41 66 -4 20 -2 45 4 55 22 41 -57 50 -365 42z m231
-360 c27 -24 33 -37 38 -90 l7 -62 -34 -21 c-20 -13 -42 -18 -57 -15 -13 4
-33 -1 -47 -10 -38 -24 -47 -10 -41 61 2 36 1 67 -4 70 -5 3 -9 22 -9 44 0 31
3 37 18 34 9 -2 31 0 47 5 45 14 48 13 82 -16z"/>
<path d="M6067 6484 c-8 -8 3 -34 14 -34 5 0 9 9 9 20 0 19 -11 26 -23 14z"/>
<path d="M8810 6831 c-20 -4 -41 -11 -48 -15 -7 -4 -18 -4 -24 1 -18 10 -150
3 -165 -9 -20 -16 -15 -37 10 -49 41 -18 70 -37 78 -50 12 -20 -2 -103 -18
-113 -12 -6 -14 -26 -11 -85 3 -71 2 -76 -18 -79 -14 -2 -24 5 -32 23 -16 35
-68 36 -84 0 l-11 -25 -19 31 c-22 36 -51 36 -57 -1 -3 -25 -17 -40 -36 -40
-6 0 -11 59 -13 152 -3 167 -8 185 -63 213 -17 9 -72 20 -122 24 l-92 7 -52
-49 c-45 -43 -52 -54 -51 -86 1 -49 13 -61 60 -61 36 0 40 3 58 45 15 34 25
45 42 45 13 0 43 0 67 1 56 2 80 -19 63 -55 -20 -45 -51 -57 -205 -81 -95 -15
-132 -106 -83 -203 22 -44 31 -52 63 -59 66 -13 139 -7 188 17 33 16 49 19 58
12 7 -6 31 -15 54 -20 49 -11 83 6 121 60 l22 32 0 -32 c0 -25 6 -35 30 -47
60 -31 150 -7 150 40 0 13 5 27 10 30 6 3 10 17 10 30 0 13 4 27 10 30 5 3 9
38 8 78 -2 85 4 106 38 130 25 18 26 18 46 1 35 -32 42 -54 23 -74 -17 -19
-17 -65 0 -132 6 -22 4 -27 -16 -30 -16 -2 -24 -10 -24 -23 0 -11 -7 -20 -15
-20 -16 0 -27 -42 -13 -56 4 -4 31 -10 58 -13 28 -3 62 -9 78 -12 15 -4 41 -1
57 6 25 11 29 16 24 39 -9 35 -23 51 -46 51 -26 0 -34 27 -14 49 14 15 15 28
6 95 -5 43 -12 80 -14 84 -10 17 10 85 26 88 26 3 78 46 78 65 0 9 -7 22 -16
30 -17 14 -121 20 -174 10z m-540 -318 c0 -35 -37 -80 -70 -87 -46 -9 -103 -7
-120 4 -13 8 -12 11 5 25 34 27 87 47 110 41 15 -4 28 1 40 14 22 25 35 26 35
3z"/>
<path d="M7401 6798 c-49 -26 -55 -78 -8 -78 52 0 56 -13 59 -175 l3 -150 -35
-5 c-30 -4 -35 -9 -38 -36 -2 -17 3 -36 10 -41 16 -13 174 -18 239 -8 31 5 49
4 53 -4 18 -29 179 -2 240 40 31 21 34 26 21 39 -12 11 -18 11 -27 2 -17 -17
-25 -15 -31 8 -3 14 -14 20 -32 20 -19 0 -43 18 -91 67 -48 48 -68 63 -74 53
-6 -10 -11 -7 -19 9 -17 31 -5 64 20 56 14 -5 19 -2 19 14 0 15 14 25 58 41
31 11 76 28 100 37 49 18 51 35 9 67 -25 18 -40 21 -125 19 -71 -2 -100 -7
-113 -19 -10 -9 -25 -14 -32 -11 -16 6 -37 -10 -37 -29 0 -6 14 -14 30 -17 39
-8 38 -19 -4 -51 -29 -22 -36 -23 -46 -11 -10 12 -9 16 4 21 21 8 21 30 0 38
-15 6 -15 8 1 26 10 11 15 26 12 34 -14 36 -125 65 -166 44z m224 -368 c20
-38 19 -40 -10 -40 -26 0 -33 14 -14 26 6 3 9 15 6 25 -7 28 0 23 18 -11z"/>
<path d="M6438 6713 c-40 -41 -46 -54 -46 -88 0 -46 9 -55 60 -55 34 0 38 3
57 46 15 32 26 45 38 42 10 -1 24 1 31 6 7 4 19 3 26 -3 8 -7 16 -7 22 -1 12
12 58 -10 62 -31 4 -24 -35 -66 -71 -78 -17 -5 -66 -15 -107 -22 -63 -10 -80
-17 -107 -44 -42 -42 -44 -94 -8 -164 28 -55 40 -61 139 -61 52 0 79 6 116 24
30 15 50 20 52 14 2 -6 24 -17 48 -24 40 -12 47 -11 77 7 60 37 80 102 42 140
-24 24 -41 21 -49 -11 -6 -25 -35 -49 -46 -37 -4 4 -3 17 2 29 6 13 7 41 3 63
-4 22 -8 80 -8 128 -1 83 -3 90 -29 117 -33 32 -102 50 -195 50 -62 0 -64 -1
-109 -47z m227 -293 c-19 -37 -49 -50 -113 -50 -66 0 -83 13 -51 39 30 26 85
45 105 37 9 -3 28 3 42 15 23 17 28 18 30 6 2 -9 -4 -30 -13 -47z"/>
<path d="M7248 6741 c-21 -11 -47 -17 -59 -14 -34 9 -49 -19 -36 -64 9 -28 9
-37 -1 -41 -7 -2 -12 -16 -12 -30 0 -31 -39 -103 -57 -110 -8 -2 -13 6 -13 22
0 15 -11 44 -25 65 -22 35 -23 41 -9 52 9 7 20 24 25 37 19 49 -43 106 -78 71
-8 -8 -17 -8 -32 1 -27 14 -61 4 -61 -19 0 -25 21 -43 36 -30 9 8 17 3 30 -16
14 -22 16 -40 10 -114 -7 -99 -3 -121 26 -121 14 0 18 -5 14 -16 -3 -9 -9 -27
-12 -41 -8 -32 -41 -66 -50 -52 -9 15 -44 -20 -44 -43 0 -16 8 -18 75 -16 87
2 100 11 91 62 -6 31 -4 35 16 38 18 2 24 10 26 35 2 17 10 37 18 43 8 7 14
19 14 26 0 8 4 14 8 14 5 0 14 16 22 35 10 26 20 35 36 35 22 0 23 -5 26 -72
2 -49 -2 -81 -11 -96 -7 -12 -11 -31 -8 -42 4 -15 1 -20 -10 -18 -19 4 -38
-24 -30 -45 5 -13 17 -15 64 -11 98 9 133 39 73 64 -36 15 -39 41 -11 125 19
57 19 58 -1 104 -11 25 -22 65 -24 89 -4 40 -3 42 24 42 34 0 52 16 52 47 0
19 -5 23 -32 23 -18 -1 -50 -9 -70 -19z"/>
<path d="M6326 6585 c-9 -26 -7 -35 8 -35 23 0 30 20 14 37 -14 13 -16 13 -22
-2z"/>
<path d="M7156 6413 c-11 -11 -6 -23 9 -23 8 0 15 4 15 9 0 13 -16 22 -24 14z"/>
</g>
</svg>
